<svg width="19" height="15" viewBox="0 0 19 15" fill="none" xmlns="http://www.w3.org/2000/svg">
<path d="M2.2534 3.06C2.26504 2.94587 2.24945 2.83064 2.20788 2.72353C2.16631 2.61641 2.09991 2.52038 2.014 2.44313L0.2394 0.317813V0H5.7475L10.0054 9.28594L13.7484 0H19V0.317813L17.4828 1.7625C17.4186 1.81148 17.369 1.87678 17.3393 1.95141C17.3097 2.02604 17.3012 2.10721 17.3147 2.18625V12.8119C17.3012 12.8909 17.3097 12.9721 17.3393 13.0467C17.369 13.1214 17.4186 13.1866 17.4828 13.2356L18.9648 14.6812V15H11.5131V14.6822L13.0482 13.2009C13.1993 13.0509 13.1993 13.0069 13.1993 12.7781V4.18875L8.9319 14.9644H8.3562L3.3877 4.18875V11.4113C3.34685 11.7141 3.4485 12.0206 3.6632 12.24L5.65915 14.6475V14.9644H0V14.6475L1.995 12.24C2.10056 12.1313 2.1789 11.9998 2.22376 11.8559C2.26863 11.712 2.27878 11.5597 2.2534 11.4113V3.06Z" fill="white"/>
</svg>
